<svg width="38" height="38" viewBox="0 0 38 38" fill="none" xmlns="http://www.w3.org/2000/svg">
<g clip-path="url(#clip0_1425_8839)">
<path fill-rule="evenodd" clip-rule="evenodd" d="M17.3004 4.02476C18.0471 2.96205 19.2645 2.32954 20.5632 2.32954C22.9852 2.32954 24.8479 4.47095 24.5124 6.86958L23.9937 10.5777L23.994 10.5779H24.007H24.02H24.033H24.0461H24.0592H24.0722H24.0854H24.0985H24.1116H24.1248H24.138H24.1512H24.1644H24.1777H24.1909H24.2042H24.2175H24.2308H24.2441H24.2575H24.2708H24.2842H24.2976H24.311H24.3244H24.3379H24.3514H24.3648H24.3783H24.3918H24.4054H24.4189H24.4325H24.446H24.4596H24.4732H24.4869H24.5005H24.5141H24.5278H24.5415H24.5552H24.5689H24.5826H24.5963H24.6101H24.6238H24.6376H24.6514H24.6652H24.679H24.6929H24.7067H24.7205H24.7344H24.7483H24.7622H24.7761H24.79H24.8039H24.8179H24.8318H24.8458H24.8598H24.8737H24.8877H24.9017H24.9158H24.9298H24.9438H24.9579H24.9719H24.986H25.0001H25.0142H25.0282H25.0423H25.0565H25.0706H25.0847H25.0989H25.113H25.1272H25.1414H25.1555H25.1697H25.1839H25.1981H25.2123H25.2266H25.2408H25.255H25.2692H25.2835H25.2977H25.312H25.3263H25.3406H25.3548H25.3691H25.3834H25.3977H25.412H25.4264H25.4407H25.455H25.4693H25.4837H25.498H25.5123H25.5267H25.541H25.5554H25.5698H25.5841H25.5985H25.6129H25.6273H25.6416H25.656H25.6704H25.6848H25.6992H25.7136H25.728H25.7424H25.7568H25.7712H25.7857H25.8001H25.8145H25.8289H25.8433H25.8578H25.8722H25.8866H25.901H25.9155H25.9299H25.9443H25.9588H25.9732H25.9876H26.0021H26.0165H26.0309H26.0454H26.0598H26.0742H26.0887H26.1031H26.1175H26.132H26.1464H26.1608H26.1753H26.1897H26.2041H26.2185H26.233H26.2474H26.2618H26.2762H26.2906H26.305H26.3195H26.3339H26.3483H26.3627H26.3771H26.3915H26.4058H26.4202H26.4346H26.449H26.4634H26.4777H26.4921H26.5065H26.5208H26.5352H26.5495H26.5639H26.5782H26.5925H26.6069H26.6212H26.6355H26.6498H26.6641H26.6784H26.6927H26.707H26.7213H26.7356H26.7497H26.764H26.7783H26.7926H26.8067H26.821H26.8353H26.8494H26.8637H26.8778H26.8921H26.9061H26.9205H26.9345H26.9488H26.9629H26.9769H26.9913H27.0053H27.0194H27.0334H27.0475H27.0618H27.0758H27.0899H27.1039H27.118H27.1321H27.1458H27.1599H27.174H27.188H27.2021H27.2158H27.2299H27.244H27.2577H27.2718H27.2856H27.2994H27.3134H27.3272H27.341H27.3551H27.3688H27.3826H27.3964H27.4102H27.424H27.4378H27.4516H27.4654H27.4789H27.4927H27.5065H27.52H27.5338H27.5473H27.5611H27.5746H27.5884H27.6019H27.6154H27.629H27.6425H27.656H27.6695H27.6831H27.6966H27.7101H27.7236H27.7372H27.7504H27.7639H27.7772H27.7907H27.804H27.8172H27.8308H27.844H27.8573H27.8705H27.8838H27.897H27.9103H27.9233H27.9366H27.9498H27.9628H27.9761H27.9891H28.0021H28.0153H28.0283H28.0413H28.0543H28.0673H28.0803H28.0933H28.1063H28.119H28.132H28.1447H28.1577H28.1704H28.1832H28.1961H28.2089H28.2216H28.2343H28.2471H28.2595H28.2723H28.285H28.2974H28.3102H28.3226H28.3351H28.3476H28.3603H28.3727H28.3852H28.3974H28.4099H28.4223H28.4345H28.447H28.4592H28.4717H28.4838H28.496H28.5082H28.5204H28.5326H28.5446H28.5568H28.569H28.5809H28.5928H28.605H28.617H28.6289H28.6408H28.6528H28.6647H28.6764H28.6883H28.7H28.7119H28.7236H28.7352H28.7469H28.7586H28.7702H28.7819H28.7933H28.805H28.8164H28.828H28.8394H28.8508H28.8622H28.8736H28.885H28.8962H28.9076H28.9187H28.9301H28.9413H28.9524H28.9635H28.9747H28.9858H28.9969H29.0078H29.0189H29.0298H29.0407H29.0516H29.0624H29.0733C30.576 10.5779 32.5912 11.2896 34.228 12.5991C35.907 13.9422 37.3217 16.026 37.3217 18.8263C37.3217 21.4412 36.0558 25.4598 34.223 28.7827C33.296 30.4636 32.1781 32.0529 30.9196 33.2401C29.6776 34.4121 28.1558 35.3232 26.447 35.3232C20.0029 35.3232 14.4776 33.8388 11.671 33.0412C11.6103 33.0239 11.5494 33.0157 11.4863 33.0157C11.1103 33.0157 10.8055 32.7108 10.8055 32.3348V14.1074C10.8055 13.5618 10.9738 13.0295 11.2875 12.5831L17.3004 4.02476ZM3.84504 12.2731C1.83142 12.2731 0.199066 13.9055 0.199066 15.9191V31.166C0.199066 33.1796 1.83142 34.8119 3.84504 34.8119C5.85865 34.8119 7.49101 33.1796 7.49101 31.166V15.9191C7.49101 13.9055 5.85865 12.2731 3.84504 12.2731Z" fill="black"/>
</g>
<defs>
<clipPath id="clip0_1425_8839">
<rect width="37.1226" height="37.1226" fill="white" transform="translate(0.199097 0.265045)"/>
</clipPath>
</defs>
</svg>
